<svg xmlns="http://www.w3.org/2000/svg" version="1.1" viewBox="0 0 24 24" id="svg1" sodipodi:docname="card-account-phone.svg" inkscape:version="1.4.4 (dcaf3e7d9e, 2026-05-05)" xmlns:inkscape="http://www.inkscape.org/namespaces/inkscape" xmlns:sodipodi="http://sodipodi.sourceforge.net/DTD/sodipodi-0.dtd" xmlns:svg="http://www.w3.org/2000/svg" width="24" height="24"><metadata><rdf:RDF xmlns:rdf="http://www.w3.org/1999/02/22-rdf-syntax-ns#" xmlns:dc="http://purl.org/dc/elements/1.1/"><rdf:Description></rdf:Description></rdf:RDF></metadata><defs id="defs1"></defs><sodipodi:namedview id="namedview1" pagecolor="#ffffff" bordercolor="#000000" borderopacity="0.25" inkscape:showpageshadow="2" inkscape:pageopacity="0.0" inkscape:pagecheckerboard="0" inkscape:deskcolor="#d1d1d1" inkscape:zoom="39.541667" inkscape:cx="12.012645" inkscape:cy="12" inkscape:window-width="2194" inkscape:window-height="1158" inkscape:window-x="0" inkscape:window-y="0" inkscape:window-maximized="1" inkscape:current-layer="svg1"></sodipodi:namedview><path d="M22,3H2A2,2 0 0,0 0,5V19A2,2 0 0,0 2,21H22A2,2 0 0,0 24,19V5A2,2 0 0,0 22,3M8,6A3,3 0 0,1 11,9A3,3 0 0,1 8,12A3,3 0 0,1 5,9A3,3 0 0,1 8,6M14,18H2V17C2,15 6,13.9 8,13.9C10,13.9 14,15 14,17V18M17.85,14H19.5L21,16L19,18C17.7,17 16.73,15.61 16.28,14C16.1,13.36 16,12.69 16,12C16,11.31 16.1,10.64 16.28,10C16.73,8.38 17.7,7 19,6L21,8L19.5,10H17.85C17.63,10.63 17.5,11.3 17.5,12C17.5,12.7 17.63,13.37 17.85,14Z" id="path1" style="fill:#613595;fill-opacity:1"></path><style>@media (prefers-color-scheme: light) { :root { filter: none; } }
@media (prefers-color-scheme: dark) { :root { filter: contrast(0.7407407407407407) brightness(2); } }
</style></svg>
